<?xml version="1.0" standalone="no"?>
<!DOCTYPE svg PUBLIC "-//W3C//DTD SVG 20010904//EN"
 "http://www.w3.org/TR/2001/REC-SVG-20010904/DTD/svg10.dtd">
<svg version="1.0" xmlns="http://www.w3.org/2000/svg"
 width="1963.000000pt" height="1097.000000pt" viewBox="0 0 1963.000000 1097.000000"
 preserveAspectRatio="xMidYMid meet">

<g transform="translate(0.000000,1097.000000) scale(0.100000,-0.100000)"
fill="#000000" stroke="none">
<path d="M10583 6918 l-43 -9 0 -209 0 -209 38 -10 c93 -24 328 -21 397 5 13
5 15 38 15 214 l0 208 -50 11 c-61 13 -298 13 -357 -1z"/>
<path d="M12992 6732 c-9 -6 -12 -30 -10 -83 l3 -74 80 0 80 0 0 80 0 80 -70
3 c-38 1 -76 -2 -83 -6z"/>
<path d="M6865 6555 c-64 -14 -162 -50 -182 -67 -10 -8 -13 -53 -13 -164 l0
-153 -137 -3 -137 -3 -9 -30 c-13 -42 -12 -235 1 -267 l11 -27 133 -3 133 -3
6 -535 c5 -510 6 -539 27 -615 64 -234 185 -361 402 -422 52 -14 100 -18 245
-17 209 1 253 10 267 59 14 48 14 195 0 251 l-13 50 -127 1 c-183 0 -256 32
-306 136 -39 78 -47 215 -44 687 l3 405 214 5 215 5 8 30 c12 39 12 221 0 260
l-8 30 -217 3 -217 2 0 200 0 200 -97 -1 c-54 0 -125 -7 -158 -14z"/>
<path d="M4050 6204 c-179 -22 -344 -63 -457 -114 l-66 -30 7 -60 c9 -76 28
-131 68 -192 42 -67 54 -72 124 -47 177 60 437 82 543 45 69 -24 132 -85 155
-152 10 -27 20 -91 23 -143 l6 -94 -54 6 c-213 24 -471 16 -605 -19 -90 -23
-198 -78 -252 -129 -120 -111 -173 -313 -143 -540 46 -344 243 -507 596 -492
223 10 361 77 466 228 16 23 17 21 48 -73 l32 -95 56 -12 c72 -14 201 -14 259
0 l44 11 0 673 c0 717 -3 772 -51 899 -60 162 -203 269 -414 312 -70 14 -320
26 -385 18z m387 -1081 c14 -5 15 -21 10 -117 -14 -281 -129 -420 -343 -419
-161 1 -244 94 -244 272 0 154 64 244 192 271 45 10 357 4 385 -7z"/>
<path d="M5611 6200 c-293 -41 -474 -194 -525 -442 -42 -202 7 -384 135 -502
77 -72 177 -120 389 -186 223 -71 279 -101 316 -172 22 -42 18 -126 -9 -172
-62 -110 -293 -130 -599 -52 l-133 35 -32 -36 c-37 -41 -70 -122 -84 -203 -16
-98 -17 -95 68 -130 172 -72 386 -106 603 -97 227 10 368 59 486 169 109 102
158 231 158 418 1 175 -42 291 -145 391 -77 76 -177 125 -407 199 -272 87
-326 125 -324 227 1 125 111 193 312 193 91 0 235 -20 313 -44 l48 -14 29 40
c42 57 72 142 78 220 l5 68 -46 19 c-60 26 -106 39 -202 57 -98 18 -347 26
-434 14z"/>
<path d="M9515 6204 c-405 -58 -626 -294 -685 -730 -19 -137 -8 -493 18 -604
65 -277 183 -445 376 -541 140 -68 212 -82 431 -83 247 -1 384 25 553 105 57
28 62 32 62 63 0 69 -47 188 -101 257 l-29 36 -82 -29 c-152 -54 -341 -71
-472 -43 -118 25 -198 88 -248 196 -28 58 -58 179 -58 228 l0 31 529 0 528 0
12 68 c19 99 26 396 12 478 -28 167 -92 298 -193 395 -64 61 -202 130 -308
154 -72 16 -284 28 -345 19z m262 -379 c100 -45 143 -140 143 -317 l0 -108
-320 0 c-249 0 -320 3 -320 13 0 6 9 53 19 104 25 122 78 222 144 274 27 22
52 39 55 39 4 1 30 7 57 15 65 19 154 11 222 -20z"/>
<path d="M11800 6203 c-148 -16 -291 -51 -434 -105 l-78 -30 4 -72 c5 -82 32
-149 84 -213 26 -31 41 -42 53 -38 54 22 257 66 350 76 220 23 350 -31 400
-165 21 -56 38 -221 24 -229 -5 -3 -87 -1 -183 5 -279 17 -459 -6 -609 -80
-88 -43 -154 -106 -198 -189 -52 -96 -66 -175 -61 -343 4 -124 9 -156 32 -224
34 -99 66 -155 123 -211 94 -94 197 -135 363 -142 242 -11 436 63 528 203 l31
46 15 -36 c8 -20 23 -61 33 -92 13 -41 24 -59 43 -67 37 -16 289 -15 318 1
l23 13 -3 702 c-4 686 -4 704 -26 780 -57 205 -185 331 -387 381 -121 31 -315
43 -445 29z m397 -1080 c13 -5 14 -22 8 -112 -12 -170 -41 -254 -116 -336 -55
-60 -124 -88 -219 -88 -92 0 -150 23 -197 76 -75 85 -81 282 -12 377 30 41 83
74 146 90 38 10 362 4 390 -7z"/>
<path d="M15544 6196 c-202 -39 -332 -124 -401 -264 -43 -85 -56 -158 -51
-272 4 -81 10 -105 36 -162 57 -119 189 -212 392 -276 363 -115 389 -124 451
-165 69 -46 121 -112 141 -180 21 -70 15 -212 -12 -282 -44 -114 -159 -199
-313 -232 -148 -31 -440 -2 -617 62 -44 15 -45 15 -62 -6 -27 -32 -23 -66 10
-83 51 -26 197 -66 302 -82 128 -19 354 -14 445 11 198 53 324 171 370 346 32
118 15 291 -38 394 -32 63 -124 146 -207 187 -73 35 -270 101 -400 133 -36 9
-106 36 -156 60 -167 81 -232 183 -221 346 16 237 195 368 507 369 95 0 253
-21 343 -47 52 -14 60 -14 74 -1 8 9 16 30 16 48 2 29 -2 34 -38 47 -144 50
-433 75 -571 49z"/>
<path d="M8494 6191 c-70 -17 -132 -58 -222 -148 -51 -51 -95 -93 -97 -93 -2
0 -6 44 -7 98 l-3 97 -75 13 c-78 14 -277 10 -335 -6 l-30 -8 -3 -921 -2 -921
63 -11 c82 -14 242 -14 324 0 l63 11 0 658 0 657 74 71 c94 89 158 116 262
110 55 -4 83 -12 133 -39 l64 -33 48 52 c27 29 64 86 83 125 34 72 62 177 53
200 -7 19 -108 65 -179 82 -66 15 -162 18 -214 6z"/>
<path d="M10610 6156 l-65 -11 -3 -921 -2 -922 63 -11 c82 -14 242 -14 324 0
l63 11 -2 922 -3 921 -65 11 c-36 7 -105 12 -155 12 -49 0 -119 -5 -155 -12z"/>
<path d="M13023 6164 c-10 -5 -13 -246 -13 -1160 0 -1014 -2 -1164 -16 -1231
-28 -138 -82 -214 -184 -262 -51 -24 -66 -26 -205 -27 l-150 -2 -3 -40 c-3
-40 -2 -41 35 -51 171 -45 370 -8 476 89 67 61 111 142 137 252 20 83 20 112
18 1259 l-3 1174 -40 2 c-22 1 -46 0 -52 -3z"/>
<path d="M13497 6163 c-4 -3 -7 -340 -7 -748 0 -804 -1 -796 56 -912 62 -128
202 -227 356 -253 161 -28 372 7 508 82 103 57 215 155 265 231 9 15 21 27 27
27 5 0 8 -64 7 -152 l-1 -153 54 0 53 0 3 937 2 938 -24 6 c-13 3 -37 4 -52 2
l-29 -3 -5 -675 -5 -675 -29 -55 c-150 -288 -429 -450 -707 -411 -198 27 -308
120 -354 298 -13 48 -15 172 -15 784 0 654 -2 727 -16 733 -21 8 -79 8 -87 -1z"/>
</g>
</svg>
